<mxfile host="app.diagrams.net" modified="2023-07-30T15:17:12.613Z" agent="Mozilla/5.0 (Windows NT 10.0; Win64; x64) AppleWebKit/537.36 (KHTML, like Gecko) Chrome/115.0.0.0 Safari/537.36" version="21.6.2" etag="yBCBbHXZd8yr0KNhipFN" type="github">
  <diagram name="Page-1" id="RwsuPAXeqt0csS-tcgns">
    <mxGraphModel>
      <root>
        <mxCell id="0" />
        <mxCell id="1" parent="0" />
      </root>
    </mxGraphModel>
  </diagram>
</mxfile>
